<?xml version="1.0" encoding="utf-8"?>
<!-- Generator: Adobe Illustrator 24.1.2, SVG Export Plug-In . SVG Version: 6.00 Build 0)  -->
<svg version="1.1" id="Capa_1" xmlns="http://www.w3.org/2000/svg" xmlns:xlink="http://www.w3.org/1999/xlink" x="0px" y="0px"
	 viewBox="0 0 273.2 170.6" enable-background="new 0 0 273.2 170.6" xml:space="preserve">
<g>
	<path fill="#FFFFFF" d="M40.3,31.2h6.3c1.2,0,2.1,0.3,2.7,0.9c0.6,0.6,0.9,1.5,0.9,2.8v39c0,4.3-1,7.5-2.9,9.8
		c-1.9,2.2-4.7,3.4-8.1,3.4c-3.1,0-5.8-0.8-8-2.3c-1.7-1.2-2.5-2.6-2.5-4.2c0-0.7,0.2-1.1,0.5-1.4c0.3-0.3,0.8-0.4,1.6-0.4
		c0.4,0,1,0.1,1.9,0.3c0.7,0.1,1.2,0.2,1.5,0.2c1.6,0,3-0.6,4.2-2c1.2-1.3,1.7-3,1.7-5.2c0-2.3-0.8-4.2-2.4-5.7
		c-1.6-1.6-3.6-2.4-5.9-2.4c-2.7,0-5.1,1-7,3.1c-1.9,2.1-2.9,4.8-2.9,8.1c0,4.3,1.9,8,5.7,11.3c3.8,3.3,8.7,4.9,14.7,4.9
		c6.5,0,11.7-1.7,15.6-5.1c3.8-3.4,5.7-7.8,5.7-13.1V34.9c0-1.2,0.3-2.2,0.9-2.8c0.6-0.6,1.6-0.9,3-0.9h3.7v-3.9H40.3V31.2z"/>
	<path fill="#FFFFFF" d="M214.6,86c-1.2,0-2.1-0.2-2.7-0.7c-0.6-0.5-0.9-1.2-0.9-2.1V49.4l-17.6,0.8v3.9h1.8c1.5,0,2.6,0.4,3.5,1.2
		c0.8,0.8,1.2,1.9,1.2,3.4v23.7c0,4.8-11.8,4.9-11.8,0v-19c0-4.7-1.2-8.3-3.5-10.8c-2.3-2.5-5.5-3.8-9.5-3.8c-2.9,0-5.7,0.7-8.3,2.2
		c-2.7,1.5-5.3,4-8,7.5c-1-3.2-2.5-5.7-4.6-7.3c-2.1-1.6-4.7-2.4-7.9-2.4c-2.9,0-5.7,0.7-8.2,2.1c-2.5,1.4-5.1,3.8-7.8,7.3
		c-0.2-3.1-0.6-6.1-1.2-8.8l-16.4,0.9v3.9c2,0,3.3,0.1,4,0.4c0.9,0.3,1.5,0.8,1.9,1.5c0.4,0.6,0.6,1.5,0.6,2.6v22.9
		c0,5.6-12.9,6.5-12.9-0.1V61.9c0-3-0.6-5.5-1.9-7.6c-1.3-2.1-3-3.5-5-4.3c-3.2-1.3-6.9-1.9-11.1-1.9c-5.5,0-10.1,1.3-13.8,3.9
		c-3,2.1-4.4,4.5-4.4,7.3c0,1.7,0.6,3,1.7,4.1c1.1,1.1,2.6,1.6,4.5,1.6c1.7,0,3.2-0.5,4.2-1.5c1-1,1.6-2.3,1.6-3.8
		c0-1.2-0.4-2.5-1.2-3.8c-0.4-0.6-0.5-1-0.5-1.3c0-0.5,0.5-1.1,1.5-1.6c1.5-0.8,3.2-1.2,5.1-1.2c2.5,0,4.5,0.7,6,2.1
		c1.5,1.4,2.2,3.3,2.2,5.5v5.7c-11.2,2-18.4,4.1-21.8,6.1c-4.1,2.6-6.2,6-6.2,10.3c0,2.8,1.1,5.2,3.4,7c2.2,1.8,5.3,2.8,9.3,2.8
		c2.9,0,5.5-0.5,7.8-1.5c2.3-1,4.9-3,7.8-5.8c0.6,1.5,2.7,7.8,9.8,7.8c4.3,0,7.2-1.7,7.2-1.7h24.5V86h-2.3c-1.4,0-2.5-0.4-3.2-1.1
		c-0.6-0.6-0.8-1.6-0.8-3.2V66.1c0-1.5,0.5-3.2,1.5-5c1-1.8,2.3-3.2,3.7-4.1c1.5-0.9,3-1.3,4.7-1.3c2.2,0,4,0.8,5.4,2.4
		c1.4,1.6,2.1,3.8,2.1,6.7v17.9c0,1.2-0.3,2.1-1,2.7c-0.5,0.5-1.5,0.7-3,0.7h-2.7V90h24.4V86h-2.7c-1.3,0-2.3-0.3-3.1-1
		c-0.6-0.5-0.8-1.7-0.8-2.7v-15c0-1.9,0.6-3.9,1.6-5.9c1-2,2.2-3.5,3.5-4.3c1.4-0.9,3-1.3,4.9-1.3c2.3,0,4.2,0.8,5.5,2.3
		c1.3,1.5,2,3.9,2,7.1v17.2c0,1.2-0.3,2.2-0.9,2.8c-0.6,0.6-1.7,0.9-3.2,0.9h-2.5V90h47V86 M95.1,74.3c0,3.5-0.9,6.2-2.8,8.2
		c-1.9,2-4.2,3-7,3c-1.8,0-3.2-0.5-4.2-1.6c-1-1.1-1.5-2.6-1.5-4.6c0-2.8,1.1-5.1,3.2-6.8c2.1-1.7,6.2-3,12.3-3.8V74.3z"/>
	<path fill="#FFFFFF" d="M205,45.7c1.9,0,3.5-0.7,4.9-2c1.4-1.3,2-3,2-4.9c0-1.9-0.7-3.6-2-4.9c-1.4-1.3-3-2-4.9-2
		c-1.9,0-3.6,0.7-4.9,2c-1.4,1.3-2,3-2,4.9c0,1.9,0.7,3.5,2,4.9C201.4,45,203,45.7,205,45.7"/>
	<path fill="#FFFFFF" d="M257.3,70.9h-27.8c0.1,5.6,1.2,9.7,3.4,12.3c2.2,2.6,4.9,4,8.3,4c2.4,0,4.7-0.7,6.9-2
		c2.2-1.4,4.4-3.8,6.7-7.4l3.1,1.9c-2.4,4.2-5.1,7.3-8.3,9.1c-3.1,1.8-6.9,2.7-11.3,2.7c-6.5,0-11.8-2-15.8-5.9c-4-4-6-9-6-15.2
		c0-6.2,2-11.4,6.1-15.5c4-4.2,9-6.2,14.9-6.2c4.1,0,7.6,0.8,10.5,2.5c2.9,1.7,5.2,4.1,6.8,7.3C256.4,61.6,257.2,65.8,257.3,70.9
		 M229.5,67h13.2c1.2,0,2.1-0.3,2.7-0.9c0.5-0.6,0.8-1.8,0.8-3.4c0-3.3-0.7-5.8-2.2-7.6c-1.5-1.8-3.4-2.7-5.7-2.7
		c-2.7,0-4.8,1.2-6.3,3.6C230.5,58.5,229.7,62.2,229.5,67"/>
	<path fill="#FFFFFF" d="M113.2,95.6c1.9,0,3.5,0.7,4.9,2c1.4,1.3,2,3,2,4.9c0,1.9-0.7,3.6-2,4.9c-1.4,1.3-3,2-4.9,2
		c-1.9,0-3.6-0.7-4.9-2c-1.4-1.4-2-3-2-4.9c0-1.9,0.7-3.6,2-4.9C109.6,96.3,111.2,95.6,113.2,95.6"/>
	<path fill="#FFFFFF" d="M122.6,113.5h23.5v3.7h-1.9c-1.5,0-2.6,0.2-3.1,0.6c-0.6,0.4-0.8,0.9-0.8,1.7c0,0.8,0.3,1.7,0.9,2.8
		l10,18.6l8.7-17.4c0.5-0.9,0.7-1.7,0.7-2.6c0-2.4-2-3.6-5.9-3.7v-3.7h17.1v3.7c-1.6,0.2-2.8,0.5-3.6,1.1c-0.8,0.6-1.6,1.5-2.3,2.8
		L149.5,154h-3l-18.1-33.2c-0.8-1.5-1.5-2.4-2.2-2.9c-0.6-0.4-1.5-0.7-2.5-0.7h-1.2"/>
	<path fill="#FFFFFF" d="M209.2,134.4h-27.8c0.1,5.6,1.2,9.7,3.4,12.3c2.2,2.6,4.9,4,8.3,4c2.4,0,4.7-0.7,6.9-2
		c2.2-1.4,4.4-3.8,6.7-7.4l3.1,1.9c-2.4,4.2-5.2,7.3-8.2,9.1c-3.1,1.8-6.9,2.7-11.3,2.7c-6.5,0-11.8-2-15.8-5.9c-4-4-6-9-6-15.2
		c0-6.2,2-11.4,6.1-15.5c4-4.2,9-6.2,14.9-6.2c4.1,0,7.6,0.8,10.5,2.5c2.9,1.7,5.2,4.1,6.8,7.3C208.2,125.1,209.1,129.3,209.2,134.4
		 M181.3,130.6h13.2c1.2,0,2.1-0.3,2.7-0.9c0.5-0.6,0.8-1.8,0.8-3.4c0-3.3-0.7-5.8-2.2-7.6c-1.5-1.8-3.4-2.7-5.7-2.7
		c-2.7,0-4.8,1.2-6.3,3.6C182.4,122,181.5,125.7,181.3,130.6"/>
	<path fill="#FFFFFF" d="M236.7,150.1v3.9h-27.4v-3.9h3.1c1.4,0,2.5-0.3,3.1-0.8c0.7-0.5,1-1.3,1-2.2v-23.5c0-1.9-0.4-3.3-1.3-4.2
		c-0.9-0.9-2.1-1.3-3.6-1.3h-2.2v-3.7l17-0.9v12.9c1-4.3,2.7-7.7,5.2-10c2.5-2.3,5.2-3.5,8.3-3.5c2.6,0,4.7,0.7,6.2,2.1
		c1.5,1.4,2.3,3.2,2.3,5.4c0,1.9-0.5,3.4-1.6,4.6c-1.1,1.2-2.4,1.8-3.9,1.8c-1.4,0-2.5-0.5-3.5-1.5c-1-1-1.5-2.3-1.5-3.9
		c0-0.9,0.2-1.8,0.7-2.8c0.2-0.5,0.4-0.9,0.4-1.1c0-0.4-0.1-0.7-0.3-0.9c-0.2-0.2-0.5-0.3-0.9-0.3c-1,0-2.1,0.6-3.3,1.8
		c-1.9,1.8-3.4,4.7-4.7,8.6c-1.3,3.9-1.9,7.8-1.9,11.8v8.6c0,1,0.3,1.7,0.8,2.3c0.5,0.5,1.3,0.8,2.2,0.8H236.7"/>
	<path fill="#FFFFFF" d="M125.9,154v-3.9h-2.7c-1.2,0-2.1-0.2-2.7-0.7c-0.6-0.5-0.9-1.2-0.9-2.1v-33.7l-17.6,0.8v3.9h1.8
		c1.5,0,2.6,0.4,3.5,1.2c0.8,0.8,1.3,1.9,1.3,3.4v23.7c0,2.1-2.4,3.3-5.1,3.6c-0.8,0.1-2.6,0.1-3.4,0c-2.6-0.3-5-1.4-5-3.5V91.3
		l-1.4,0.2C90.1,95.7,83.5,96,76.8,96v3.7h2.7c2.5,0,4.4,2.1,4.4,4.3v42c0,1.4-0.3,2.4-0.9,3c-0.6,0.7-1.5,1-2.8,1h-2.7v3.9H125.9z"
		/>
	<path fill="#FFFFFF" d="M47.5,89.7c5.7,0,10.9,1.4,15.7,4.3c4.8,2.9,8.5,6.7,11.2,11.7c2.7,4.9,4,10.5,4,16.7
		c0,9.4-3,17.3-8.9,23.5c-5.9,6.3-13.3,9.4-22,9.4c-5.8,0-11-1.4-15.7-4.3c-4.6-2.9-8.3-6.7-10.9-11.6c-2.7-4.8-4-10.7-4-17.1
		c0-9.5,2.9-17.1,8.8-23.3C31.5,92.8,38.8,89.7,47.5,89.7 M47.6,93.8c-3.2,0-6,0.9-8.4,2.8c-2.4,1.9-4.3,4.8-5.7,9
		c-1.4,4.1-2.1,9.6-2.1,16.8c0,7.5,0.6,13.4,1.9,17.3c1.3,3.9,3.2,6.8,5.7,8.6c2.5,1.9,5.4,2.8,8.7,2.8c4.9,0,8.8-2.2,11.7-6.5
		c2.9-4.3,4.4-11.5,4.4-22.2c0-7.5-0.6-13.6-1.9-17.3c-1.3-3.8-3.1-6.6-5.6-8.4C53.8,94.7,50.9,93.8,47.6,93.8"/>
</g>
</svg>
