<?xml version="1.0" encoding="utf-8"?>
<!-- Generator: Adobe Illustrator 24.1.2, SVG Export Plug-In . SVG Version: 6.00 Build 0)  -->
<svg version="1.1" id="Capa_1" xmlns="http://www.w3.org/2000/svg" xmlns:xlink="http://www.w3.org/1999/xlink" x="0px" y="0px"
	 viewBox="0 0 61.2 38.3" enable-background="new 0 0 61.2 38.3" xml:space="preserve">
<g>
	<path d="M9.5,5.8H11c0.3,0,0.5,0.1,0.6,0.2c0.1,0.1,0.2,0.4,0.2,0.7v9.1c0,1-0.2,1.8-0.7,2.3c-0.5,0.5-1.1,0.8-1.9,0.8
		c-0.7,0-1.4-0.2-1.9-0.5c-0.4-0.3-0.6-0.6-0.6-1c0-0.2,0-0.3,0.1-0.3c0.1-0.1,0.2-0.1,0.4-0.1c0.1,0,0.2,0,0.4,0.1
		c0.2,0,0.3,0,0.4,0c0.4,0,0.7-0.2,1-0.5c0.3-0.3,0.4-0.7,0.4-1.2c0-0.5-0.2-1-0.6-1.3c-0.4-0.4-0.8-0.6-1.4-0.6
		c-0.6,0-1.2,0.2-1.6,0.7c-0.4,0.5-0.7,1.1-0.7,1.9c0,1,0.4,1.9,1.3,2.6c0.9,0.8,2,1.1,3.4,1.1c1.5,0,2.7-0.4,3.6-1.2
		c0.9-0.8,1.3-1.8,1.3-3.1V6.7c0-0.3,0.1-0.5,0.2-0.7c0.1-0.1,0.4-0.2,0.7-0.2h0.9V4.9H9.5V5.8z"/>
	<path d="M50.3,18.7c-0.3,0-0.5-0.1-0.6-0.2c-0.1-0.1-0.2-0.3-0.2-0.5v-7.9l-4.1,0.2v0.9h0.4c0.3,0,0.6,0.1,0.8,0.3
		c0.2,0.2,0.3,0.4,0.3,0.8v5.5c0,1.1-2.8,1.1-2.8,0v-4.4c0-1.1-0.3-1.9-0.8-2.5C42.7,10.3,42,10,41,10c-0.7,0-1.3,0.2-1.9,0.5
		c-0.6,0.3-1.2,0.9-1.9,1.8c-0.2-0.8-0.6-1.3-1.1-1.7C35.6,10.2,35,10,34.3,10c-0.7,0-1.3,0.2-1.9,0.5c-0.6,0.3-1.2,0.9-1.8,1.7
		c0-0.7-0.1-1.4-0.3-2.1l-3.8,0.2v0.9c0.5,0,0.8,0,0.9,0.1c0.2,0.1,0.4,0.2,0.5,0.3c0.1,0.1,0.1,0.4,0.1,0.6v5.4c0,1.3-3,1.5-3,0V13
		c0-0.7-0.2-1.3-0.5-1.8c-0.3-0.5-0.7-0.8-1.2-1c-0.8-0.3-1.6-0.5-2.6-0.5c-1.3,0-2.4,0.3-3.2,0.9c-0.7,0.5-1,1.1-1,1.7
		c0,0.4,0.1,0.7,0.4,1c0.3,0.2,0.6,0.4,1.1,0.4c0.4,0,0.7-0.1,1-0.3c0.2-0.2,0.4-0.5,0.4-0.9c0-0.3-0.1-0.6-0.3-0.9
		c-0.1-0.1-0.1-0.2-0.1-0.3c0-0.1,0.1-0.3,0.3-0.4c0.3-0.2,0.7-0.3,1.2-0.3c0.6,0,1.1,0.2,1.4,0.5c0.4,0.3,0.5,0.8,0.5,1.3v1.3
		c-2.6,0.5-4.3,1-5.1,1.4c-1,0.6-1.4,1.4-1.4,2.4c0,0.7,0.3,1.2,0.8,1.6c0.5,0.4,1.3,0.6,2.2,0.6c0.7,0,1.3-0.1,1.8-0.4
		c0.5-0.2,1.1-0.7,1.8-1.4c0.1,0.4,0.6,1.8,2.3,1.8c1,0,1.7-0.4,1.7-0.4h5.7v-0.9h-0.5c-0.3,0-0.6-0.1-0.8-0.3
		c-0.1-0.1-0.2-0.4-0.2-0.8V14c0-0.4,0.1-0.8,0.4-1.2c0.2-0.4,0.5-0.7,0.9-1c0.3-0.2,0.7-0.3,1.1-0.3c0.5,0,0.9,0.2,1.3,0.6
		c0.3,0.4,0.5,0.9,0.5,1.6v4.2c0,0.3-0.1,0.5-0.2,0.6c-0.1,0.1-0.4,0.2-0.7,0.2h-0.6v0.9h5.7v-0.9h-0.6c-0.3,0-0.5-0.1-0.7-0.2
		c-0.1-0.1-0.2-0.4-0.2-0.6v-3.5c0-0.5,0.1-0.9,0.4-1.4c0.2-0.5,0.5-0.8,0.8-1c0.3-0.2,0.7-0.3,1.2-0.3c0.5,0,1,0.2,1.3,0.5
		c0.3,0.4,0.5,0.9,0.5,1.7v4c0,0.3-0.1,0.5-0.2,0.6c-0.1,0.1-0.4,0.2-0.7,0.2h-0.6v0.9h11v-0.9 M22.3,15.9c0,0.8-0.2,1.5-0.6,1.9
		c-0.4,0.5-1,0.7-1.6,0.7c-0.4,0-0.8-0.1-1-0.4c-0.2-0.2-0.4-0.6-0.4-1.1c0-0.7,0.3-1.2,0.7-1.6c0.5-0.4,1.5-0.7,2.9-0.9V15.9z"/>
	<path d="M48,9.2c0.4,0,0.8-0.2,1.1-0.5c0.3-0.3,0.5-0.7,0.5-1.1c0-0.4-0.2-0.8-0.5-1.1C48.8,6.2,48.5,6,48,6
		c-0.5,0-0.8,0.2-1.2,0.5c-0.3,0.3-0.5,0.7-0.5,1.1c0,0.4,0.2,0.8,0.5,1.1C47.2,9.1,47.6,9.2,48,9.2"/>
	<path d="M60.3,15.1h-6.5c0,1.3,0.3,2.3,0.8,2.9c0.5,0.6,1.2,0.9,1.9,0.9c0.6,0,1.1-0.2,1.6-0.5c0.5-0.3,1-0.9,1.6-1.7l0.7,0.4
		c-0.6,1-1.2,1.7-1.9,2.1c-0.7,0.4-1.6,0.6-2.7,0.6c-1.5,0-2.8-0.5-3.7-1.4c-0.9-0.9-1.4-2.1-1.4-3.6c0-1.5,0.5-2.7,1.4-3.6
		s2.1-1.5,3.5-1.5c1,0,1.8,0.2,2.5,0.6c0.7,0.4,1.2,1,1.6,1.7C60.1,13,60.3,14,60.3,15.1 M53.8,14.2h3.1c0.3,0,0.5-0.1,0.6-0.2
		c0.1-0.1,0.2-0.4,0.2-0.8c0-0.8-0.2-1.4-0.5-1.8c-0.3-0.4-0.8-0.6-1.3-0.6c-0.6,0-1.1,0.3-1.5,0.9C54,12.2,53.8,13.1,53.8,14.2"/>
	<path d="M26.5,20.9c0.4,0,0.8,0.2,1.1,0.5c0.3,0.3,0.5,0.7,0.5,1.1c0,0.5-0.2,0.8-0.5,1.1c-0.3,0.3-0.7,0.5-1.1,0.5
		c-0.5,0-0.8-0.2-1.2-0.5c-0.3-0.3-0.5-0.7-0.5-1.1c0-0.4,0.2-0.8,0.5-1.1C25.7,21.1,26.1,20.9,26.5,20.9"/>
	<path d="M28.7,25.1h5.5V26h-0.4c-0.4,0-0.6,0-0.7,0.1c-0.1,0.1-0.2,0.2-0.2,0.4c0,0.2,0.1,0.4,0.2,0.7l2.4,4.4l2-4.1
		c0.1-0.2,0.2-0.4,0.2-0.6c0-0.6-0.5-0.8-1.4-0.9v-0.9h4V26c-0.4,0-0.6,0.1-0.8,0.3c-0.2,0.1-0.4,0.4-0.5,0.7L35,34.6h-0.7l-4.2-7.8
		c-0.2-0.3-0.4-0.6-0.5-0.7C29.5,26.1,29.3,26,29,26h-0.3"/>
	<path d="M49,30h-6.5c0,1.3,0.3,2.3,0.8,2.9c0.5,0.6,1.2,0.9,1.9,0.9c0.6,0,1.1-0.2,1.6-0.5c0.5-0.3,1-0.9,1.6-1.7l0.7,0.4
		c-0.6,1-1.2,1.7-1.9,2.1c-0.7,0.4-1.6,0.6-2.7,0.6c-1.5,0-2.8-0.5-3.7-1.4c-0.9-0.9-1.4-2.1-1.4-3.6c0-1.4,0.5-2.7,1.4-3.6
		c0.9-1,2.1-1.5,3.5-1.5c1,0,1.8,0.2,2.5,0.6c0.7,0.4,1.2,1,1.6,1.7C48.8,27.8,49,28.8,49,30 M42.5,29.1h3.1c0.3,0,0.5-0.1,0.6-0.2
		c0.1-0.1,0.2-0.4,0.2-0.8c0-0.8-0.2-1.4-0.5-1.8c-0.3-0.4-0.8-0.6-1.3-0.6c-0.6,0-1.1,0.3-1.5,0.9C42.7,27.1,42.5,28,42.5,29.1"/>
	<path d="M55.4,33.7v0.9H49v-0.9h0.7c0.3,0,0.6-0.1,0.7-0.2c0.2-0.1,0.2-0.3,0.2-0.5v-5.5c0-0.4-0.1-0.8-0.3-1
		c-0.2-0.2-0.5-0.3-0.8-0.3H49v-0.9l4-0.2v3c0.2-1,0.6-1.8,1.2-2.3c0.6-0.5,1.2-0.8,1.9-0.8c0.6,0,1.1,0.2,1.5,0.5
		c0.4,0.3,0.5,0.7,0.5,1.3c0,0.4-0.1,0.8-0.4,1.1c-0.2,0.3-0.6,0.4-0.9,0.4c-0.3,0-0.6-0.1-0.8-0.4c-0.2-0.2-0.3-0.5-0.3-0.9
		c0-0.2,0.1-0.4,0.2-0.6c0.1-0.1,0.1-0.2,0.1-0.3c0-0.1,0-0.2-0.1-0.2c0,0-0.1-0.1-0.2-0.1c-0.2,0-0.5,0.1-0.8,0.4
		c-0.4,0.4-0.8,1.1-1.1,2c-0.3,0.9-0.4,1.8-0.4,2.8v2c0,0.2,0.1,0.4,0.2,0.5c0.1,0.1,0.3,0.2,0.5,0.2H55.4"/>
	<path d="M29.5,34.6v-0.9h-0.6c-0.3,0-0.5-0.1-0.6-0.2c-0.1-0.1-0.2-0.3-0.2-0.5v-7.9l-4.1,0.2v0.9h0.4c0.3,0,0.6,0.1,0.8,0.3
		c0.2,0.2,0.3,0.4,0.3,0.8v5.5c0,0.5-0.6,0.8-1.2,0.8c-0.2,0-0.6,0-0.8,0c-0.6-0.1-1.2-0.3-1.2-0.8V19.9L22,20c-0.9,1-2.4,1.1-4,1.1
		v0.9h0.6c0.6,0,1,0.5,1,1v9.8c0,0.3-0.1,0.6-0.2,0.7c-0.1,0.2-0.4,0.2-0.7,0.2h-0.6v0.9H29.5z"/>
	<path d="M11.2,19.6c1.3,0,2.5,0.3,3.7,1c1.1,0.7,2,1.6,2.6,2.7c0.6,1.2,0.9,2.4,0.9,3.9c0,2.2-0.7,4-2.1,5.5
		c-1.4,1.5-3.1,2.2-5.2,2.2c-1.4,0-2.6-0.3-3.7-1c-1.1-0.7-1.9-1.6-2.6-2.7c-0.6-1.1-0.9-2.5-0.9-4c0-2.2,0.7-4,2.1-5.5
		C7.4,20.3,9.1,19.6,11.2,19.6 M11.2,20.5c-0.8,0-1.4,0.2-2,0.6c-0.6,0.4-1,1.1-1.3,2.1c-0.3,1-0.5,2.3-0.5,3.9c0,1.8,0.2,3.1,0.5,4
		c0.3,0.9,0.7,1.6,1.3,2c0.6,0.4,1.3,0.7,2,0.7c1.1,0,2-0.5,2.7-1.5c0.7-1,1-2.7,1-5.2c0-1.8-0.1-3.2-0.4-4.1
		c-0.3-0.9-0.7-1.5-1.3-2C12.6,20.7,12,20.5,11.2,20.5"/>
</g>
</svg>
